<svg width="14" height="14" viewBox="0 0 14 14" fill="none" xmlns="http://www.w3.org/2000/svg">
<path d="M10.1027 3.39499L11.1107 4.40299L7.69475 7.81899L5.39175 5.51599C5.11875 5.24299 4.67775 5.24299 4.40475 5.51599L0.20475 9.72299C-0.06825 9.99599 -0.06825 10.437 0.20475 10.71C0.47775 10.983 0.91875 10.983 1.19175 10.71L4.89475 6.99999L7.19775 9.30299C7.47075 9.57599 7.91175 9.57599 8.18475 9.30299L12.0978 5.39699L13.1057 6.40499C13.3227 6.62199 13.7007 6.46799 13.7007 6.15999V3.14999C13.7077 2.95399 13.5537 2.79999 13.3577 2.79999L10.3547 2.79999C10.0397 2.79999 9.88575 3.17799 10.1027 3.39499Z" fill="#A8B5DB"/>
</svg>
